<svg width="56" height="56" viewBox="0 0 56 56" fill="none" xmlns="http://www.w3.org/2000/svg">
<path d="M11.7871 8.44247V6.5332L7.85405 6.5332V8.44247L11.7871 8.44247ZM7.85405 25.6143V8.44247H5.88754V25.6143H7.85405ZM5.88754 27.5235V25.6143H3.92103V27.5235H5.88754ZM3.92103 29.4212V27.5235H0V29.4212H3.92103ZM5.88754 31.3304V29.4212H3.92103V31.3304H5.88754ZM7.85405 48.4906V31.3304H5.88754V48.4906H7.85405ZM11.7871 50.3999V48.4906H7.85405V50.3999H11.7871Z" fill="black"/>
<path d="M28.4976 40.8652V38.9675H26.5311V23.705H28.4976V21.7957H26.5311V17.9772H24.5646V19.8865H22.5981V21.7957H20.6436V23.705H22.5981V38.9675H20.6436V40.8652H28.4976ZM36.3517 23.705V19.8865H28.4976V21.7957H32.4306V23.705H36.3517Z" fill="black"/>
<path d="M48.134 8.44247V6.5332L44.2129 6.5332V8.44247H48.134ZM50.1005 25.6143V8.44247H48.134V25.6143H50.1005ZM52.067 27.5235V25.6143H50.1005V27.5235H52.067ZM56 29.4212V27.5235H52.067V29.4212H56ZM52.067 31.3304V29.4212H50.1005V31.3304H52.067ZM50.1005 48.4906V31.3304H48.134V48.4906H50.1005ZM48.134 50.3999V48.4906H44.2129V50.3999H48.134Z" fill="black"/>
</svg>
